<svg width="168" height="48" fill="#1877F2" version="1.1" id="Capa_1"
	xmlns="http://www.w3.org/2000/svg"
	xmlns:xlink="http://www.w3.org/1999/xlink" width="60px" height="60px" viewBox="0 0 38.982 38.982" xml:space="preserve">
	<g>
		<path d="M25.879,19.002c0,0.77,0,1.537,0,2.308c-5.683,0.056-11.362,5.096-17.042,1.369c0-3.096,0-6.188,0-9.285
		c1.234,0.81,2.471,1.205,3.704,1.327c0,0.604,0,1.207,0,1.811c-0.454,0.936-1.407,1.57-2.575,1.286c0,0.612,0,1.224,0,1.835
		c1.434,0.91,2.572,1.938,2.918,3.234c3.02,0.179,6.037-1.194,9.057-2.061c0.104-0.45,0.297-0.896,0.558-1.312
		C23.623,19.219,24.75,19.012,25.879,19.002z M30.557,10.184c0,3.095,0,6.188,0,9.284c-5.68-3.725-11.357,1.315-17.04,1.371
		c0-3.097,0-6.188,0-9.286C19.199,11.499,24.881,6.459,30.557,10.184z M29.43,15.137c0-0.608,0-1.216,0-1.823
		c-1.483-0.93-2.662-1.987-2.979-3.343c-3.003-0.158-6.005,1.207-9.007,2.063c-0.275,1.373-1.379,2.762-2.799,3.241
		c0,0.611,0,1.226,0,1.835c1.433,0.08,2.572,0.705,2.919,1.883c3.018-0.876,6.035-2.234,9.055-2.02
		C26.932,15.741,28.031,14.788,29.43,15.137z M21.643,16.869c-0.696,0.085-1.049-0.27-1.049-1.005c0-0.124,0-0.247,0-0.371
		c0.306-0.098,0.608-0.193,0.916-0.285c0,0.143,0,0.282,0,0.425c0,0.388,0.192,0.468,0.502,0.38c0.31-0.087,0.502-0.276,0.502-0.662
		c0-1.134-1.896-0.621-1.896-2.152c0-0.727,0.345-1.306,1.021-1.64c0-0.087,0-0.175,0-0.261c-1.231,0.59-2.18,2.138-2.18,3.605
		c0,1.479,0.945,2.373,2.18,2.219C21.643,17.038,21.643,16.954,21.643,16.869z M22.436,11.073c0,0.087,0,0.174,0,0.263
		c0.688-0.059,1.039,0.341,1.039,1.071c0,0.059,0,0.115,0,0.171c-0.308,0.063-0.609,0.138-0.916,0.217c0-0.074,0-0.149,0-0.226
		c0-0.386-0.178-0.488-0.483-0.401c-0.31,0.088-0.483,0.287-0.483,0.674c0,1.092,1.896,0.65,1.896,2.226
		c0,0.736-0.361,1.273-1.05,1.579c0,0.084,0,0.169,0,0.253c1.234-0.553,2.181-1.879,2.181-3.354
		C24.615,12.071,23.672,10.957,22.436,11.073z M37.291,4.405h-35.6C0.756,4.405,0,5.163,0,6.096v20.021
		c0,0.935,0.759,1.69,1.691,1.69h13.711v1.918c-3.688,0.41-6.845,1.36-8.929,2.637v2.215H32.51v-2.215
		c-2.084-1.273-5.238-2.227-8.932-2.637v-1.918h13.713c0.936,0,1.691-0.758,1.691-1.69V6.096
		C38.982,5.163,38.223,4.405,37.291,4.405z M35.598,24.425H3.384V7.788h32.213V24.425L35.598,24.425z"/>
	</g>
</svg>